<svg xmlns="http://www.w3.org/2000/svg" viewBox="0 0 512 512" role="img" aria-labelledby="title">
  <title id="title">Welcome Palace icon</title>
  <rect width="512" height="512" fill="#000000"/>
  <g transform="translate(56 90) scale(1.25)" fill="none">
    <g stroke-linecap="round" stroke-linejoin="round">
      <path d="M12 132c20-42 64-38 82-10 10-44 42-76 66-98 25 22 56 54 66 98 18-28 62-32 82 10" stroke="#ffffff" stroke-width="10"/>
      <path d="M12 132c20-42 64-38 82-10 10-44 42-76 66-98 25 22 56 54 66 98 18-28 62-32 82 10" stroke="#8d3d22" stroke-width="6"/>
      <path d="M36 142c30 30 68 46 124 46s94-16 124-46" stroke="#ffffff" stroke-width="10"/>
      <path d="M36 142c30 30 68 46 124 46s94-16 124-46" stroke="#8d3d22" stroke-width="6"/>
      <path d="M68 164c46 18 138 18 184 0" stroke="#ffffff" stroke-width="9"/>
      <path d="M68 164c46 18 138 18 184 0" stroke="#8d3d22" stroke-width="5"/>
      <path d="M160 52c-15-14-15-34 0-50 15 16 15 36 0 50Z" stroke="#ffffff" stroke-width="8"/>
      <path d="M160 52c-15-14-15-34 0-50 15 16 15 36 0 50Z" stroke="#8d3d22" stroke-width="5"/>
      <path d="M118 70c-22-14-39-10-52 10 24 1 43 8 56 25m80-35c22-14 39-10 52 10-24 1-43 8-56 25" stroke="#ffffff" stroke-width="8"/>
      <path d="M118 70c-22-14-39-10-52 10 24 1 43 8 56 25m80-35c22-14 39-10 52 10-24 1-43 8-56 25" stroke="#8d3d22" stroke-width="5"/>
    </g>
    <text x="160" y="246" text-anchor="middle" fill="#8d3d22" stroke="#ffffff" stroke-width="2" font-family="Georgia, 'Times New Roman', serif" font-size="92" font-weight="700">WP</text>
  </g>
</svg>
